<svg xmlns="http://www.w3.org/2000/svg" viewBox="0 0 100 125" x="0px" y="0px"><defs><style>
      .cls-1 {
        stroke-width: 0px;
      }
    </style></defs><path class="cls-1" d="M64,45v-.03c0-1.67-.12-3.17-.38-4.58,0-.04-.02-.08-.03-.11-.04-.24-.09-.48-.16-.78-.48-2.19-1.22-4.07-2.19-5.58-.73-1.14-1.52-2.12-2.29-3.07-1.11-1.37-2.15-2.67-2.84-4.25l-.31-.72c-.51-1.16-.91-2.08-1.14-2.96,1.34-.3,2.34-1.49,2.34-2.92v-3c0-1.65-1.35-3-3-3h-8c-1.65,0-3,1.35-3,3v3c0,1.43,1,2.62,2.34,2.92-.23.89-.63,1.81-1.14,2.96l-.31.72c-.69,1.58-1.73,2.88-2.84,4.25-.76.95-1.55,1.93-2.28,3.06-.98,1.51-1.72,3.39-2.21,5.66-.05.23-.1.46-.14.7-.01.04-.02.08-.03.12-.25,1.41-.38,2.9-.38,4.61,0,1.2.54,2.27,1.38,3-.84.73-1.38,1.8-1.38,3v3c0,1.2.54,2.27,1.38,3-.84.73-1.38,1.8-1.38,3v3c0,1.2.54,2.27,1.38,3-.84.73-1.38,1.8-1.38,3v11c0,3.42,2.29,6,5.33,6,1.26,0,2.48-.5,3.45-1.42.3-.29.58-.62.82-.98,1.02,1.46,2.65,2.4,4.4,2.4,1.26,0,2.51-.5,3.51-1.4.33-.3.63-.64.89-1.01.98,1.47,2.55,2.4,4.27,2.4,3.04,0,5.33-2.58,5.33-6v-11c0-1.2-.54-2.27-1.38-3,.84-.73,1.38-1.8,1.38-3v-3c0-1.2-.54-2.27-1.38-3,.84-.73,1.38-1.8,1.38-3v-3c0-1.2-.54-2.27-1.38-3,.84-.73,1.38-1.8,1.38-3ZM45,20v-3c0-.55.45-1,1-1h8c.55,0,1,.45,1,1v3c0,.55-.45,1-1,1h-8c-.55,0-1-.45-1-1ZM62,69v11c0,2.32-1.4,4-3.33,4-1.57,0-2.94-1.33-3.26-3.17-.08-.48-.5-.83-.99-.83s-.9.35-.99.83c-.15.88-.6,1.7-1.26,2.29-.63.57-1.41.88-2.17.88-1.61,0-3.12-1.39-3.43-3.17-.08-.48-.5-.83-.99-.83s-.9.35-.99.83c-.16.9-.58,1.72-1.19,2.31-.6.57-1.32.87-2.07.87-1.93,0-3.33-1.68-3.33-4v-11c0-1.1.9-2,2-2h20c1.1,0,2,.9,2,2ZM62,60v3c0,1.1-.9,2-2,2h-20c-1.1,0-2-.9-2-2v-3c0-1.1.9-2,2-2h20c1.1,0,2,.9,2,2ZM62,51v3c0,1.1-.9,2-2,2h-20c-1.1,0-2-.9-2-2v-3c0-1.1.9-2,2-2h20c1.1,0,2,.9,2,2ZM40,47c-1.1,0-2-.9-2-2.03,0-1.51.11-2.86.33-4.12.01-.04.02-.08.03-.13.04-.25.1-.5.16-.81.43-1.95,1.07-3.61,1.92-4.92.67-1.05,1.43-1.99,2.16-2.89,1.14-1.42,2.32-2.88,3.12-4.71l.31-.71c.6-1.36,1.09-2.5,1.34-3.69h5.26c.26,1.19.74,2.33,1.34,3.69l.31.71c.8,1.83,1.98,3.29,3.12,4.71.73.91,1.49,1.84,2.16,2.89.85,1.31,1.5,2.97,1.94,4.99.05.24.1.49.15.74,0,.04.02.08.03.12.22,1.26.33,2.61.33,4.12v.03c0,1.1-.9,2-2,2h-20Z"/><text x="0" y="115" fill="#000000" font-size="5px" font-weight="bold" font-family="'Helvetica Neue', Helvetica, Arial-Unicode, Arial, Sans-serif">Created by Sebastiaan van Veen</text><text x="0" y="120" fill="#000000" font-size="5px" font-weight="bold" font-family="'Helvetica Neue', Helvetica, Arial-Unicode, Arial, Sans-serif">from the Noun Project</text></svg>