<svg xmlns="http://www.w3.org/2000/svg" viewBox="0 0 5 6.25" x="0px" y="0px"><title>Plastic</title><g data-name="Layer 1"><path d="M3.36019,1.09143A1.844,1.844,0,0,0,2.98261.967,1.78892,1.78892,0,0,1,2.654.90732.73431.73431,0,0,0,2.3618.85941C2.26853.8584,2.17266.864,2.07957.8708A1.95821,1.95821,0,0,1,1.7904.89171a.03412.03412,0,0,0-.03624.02091.0155.0155,0,0,0-.00962.00849A.10974.10974,0,0,0,1.735.96142c-.03807.07908-.05519.16905-.08523.25119a.74572.74572,0,0,0-.0764.19986.044.044,0,0,0,.01706.0408c-.00732-.00433.00728.05809.00852.06825a.79029.79029,0,0,1,.00157.10069A.16549.16549,0,0,0,1.635,1.7517a.03487.03487,0,0,0,.06111-.01665.53566.53566,0,0,0-.0404-.30244l.00921-.02641c.02109-.05407.04657-.10548.06447-.16091a1.60524,1.60524,0,0,0,.04493-.16139c.0338.05769.08083.11273.106.15395a.04773.04773,0,0,0,.05532.01441.99508.99508,0,0,1,.41366.0136c.06223.00585.12488.00721.18721.01184a1.60318,1.60318,0,0,1,.21739.04272.55868.55868,0,0,0,.25379-.03017.47738.47738,0,0,1,.22-.01927c.03262.00589.076.03272.10858.024a.04007.04007,0,0,0,.02518-.06368h.001c-.05213-.06287-.18011-.04818-.24926-.03111-.05935.01466-.11544.04055-.17468.05566a.3974.3974,0,0,1-.2232-.03809,2.87463,2.87463,0,0,0-.41641-.04088,1.15713,1.15713,0,0,0-.36024-.02078c-.02322-.03329-.049-.06481-.07372-.097A.97633.97633,0,0,1,1.79045.96441a1.68122,1.68122,0,0,0,.3882-.01366,1.3525,1.3525,0,0,1,.28608-.017c.08217.01532.15337.06029.23391.08a2.359,2.359,0,0,0,.25748.02756.89957.89957,0,0,1,.188.05826c.03722.01326.26026.066.24044.11724a.02789.02789,0,0,0,.03614.03591C3.52666,1.20755,3.41608,1.11757,3.36019,1.09143Z"/><path d="M2.84918,2.01762a.6372.6372,0,0,1-.27454-.10806,1.89554,1.89554,0,0,0-.20375-.142,1.42353,1.42353,0,0,0-.59084-.061.0243.0243,0,0,0-.0124.04635.88691.88691,0,0,0,.30889.04363.55649.55649,0,0,1,.31764.1005c.11027.07974.31539.25952.46283.17989A.03125.03125,0,0,0,2.84918,2.01762Z"/><path d="M3.43954,1.3578a.0139.0139,0,0,0-.02644-.00349c-.04451.09665-.03346.21469-.09519.30314a1.53755,1.53755,0,0,1-.16986.18347c-.03542.03627.02668.098.064.06281a.88113.88113,0,0,0,.19594-.219A.66527.66527,0,0,0,3.43954,1.3578Z"/><path d="M3.53746,2.56422a.92249.92249,0,0,1-.04958-.1556C3.48,2.3543,3.486,2.2988,3.48026,2.24421c-.00974-.09243-.0358-.18111-.04275-.27379A.1866.1866,0,0,0,3.38176,1.828a.01889.01889,0,0,0-.0286.02222c.02319.04388-.00892.13306-.00657.183.004.0861.03255.17007.03777.25644a.54651.54651,0,0,0,.04529.24061.17675.17675,0,0,1,.011.16938.49461.49461,0,0,0-.03395.10713c-.0053.03534-.00573.07132-.01164.10657a.27743.27743,0,0,1-.06228.11876.32708.32708,0,0,0-.03409.1968c.00376.10372.01185.20526.00767.30938a.86647.86647,0,0,1-.01653.25614.03308.03308,0,0,0,.05055.03825c.05711-.03449.04572-.11895.0496-.17675a2.55871,2.55871,0,0,0,.00916-.32366A1.38214,1.38214,0,0,1,3.39162,3.174c.00421-.07661.03177-.09055.06478-.14733a.92127.92127,0,0,0,.05-.24119C3.52969,2.70024,3.56676,2.65323,3.53746,2.56422Z"/><path d="M1.66742,2.83073c-.03234-.06947-.05394-.14275-.0835-.21342A.39114.39114,0,0,1,1.554,2.33257a1.25024,1.25024,0,0,0,.04586-.20136.65812.65812,0,0,1,.045-.221c.00765-.01579-.01475-.03346-.02789-.0211a.30671.30671,0,0,0-.0786.18111c-.01769.09579-.048.18354-.073.27733A.36263.36263,0,0,0,1.484,2.595,1.16549,1.16549,0,0,0,1.604,2.8679.03724.03724,0,0,0,1.66742,2.83073Z"/><path d="M1.68765,3.93078a.55549.55549,0,0,1-.13815-.39391.79491.79491,0,0,1,.01971-.26676.58565.58565,0,0,0,.02431-.271c-.00344-.01361-.02479-.02075-.03034-.004a1.58092,1.58092,0,0,0-.10275.60893c.00946.14208.039.33449.18772.39609A.04042.04042,0,0,0,1.68765,3.93078Z"/><path d="M3.22046,3.826a3.09756,3.09756,0,0,0-.39931.057c-.14048.01892-.28131.03566-.42079.06131-.121.02226-.23988.05308-.35837.086a.285.285,0,0,1-.19382-.01983A.13533.13533,0,0,0,1.73839,4.008a.02783.02783,0,0,0-.006.04747.40683.40683,0,0,0,.26866.08214c.13143-.02555.2592-.0781.39209-.10374.14528-.028.29241-.045.439-.06472a1.34388,1.34388,0,0,0,.40442-.083A.03159.03159,0,0,0,3.22046,3.826Z"/><path d="M3.10285,2.42136c-.10413.03718-.20079.1412-.315.11072-.10733-.02863-.21232-.05917-.32259-.07819-.10765-.01855-.2159-.02872-.32425-.04156a.45369.45369,0,0,0-.22626.00665c-.01227.005-.011.02686.0036.02725a1.7713,1.7713,0,0,1,.27342.04431c.134.02523.26841.04877.40073.08185a1.733,1.733,0,0,1,.182.05944.15046.15046,0,0,0,.09635.00937.554.554,0,0,0,.2652-.1771A.02827.02827,0,0,0,3.10285,2.42136Z"/><path d="M2.95651,3.09722a2.65923,2.65923,0,0,1-.40277-.17566,1.42029,1.42029,0,0,0-.43649-.09131c-.005-.00025-.00794.00739-.00243.0091a3.70954,3.70954,0,0,1,.502.197c.0732.03522.13894.088.21232.12082a.13171.13171,0,0,0,.142-.00649A.03042.03042,0,0,0,2.95651,3.09722Z"/><path d="M2.81769,3.67253a2.68192,2.68192,0,0,0-.50614.07523c-.084.01687-.16824.03168-.25326.04215a.58863.58863,0,0,0-.223.03688.02344.02344,0,0,0,.00013.04261.40653.40653,0,0,0,.23421.00915c.085-.00947.16954-.024.25347-.04048a2.904,2.904,0,0,0,.50133-.14044C2.8392,3.69186,2.83154,3.67238,2.81769,3.67253Z"/><path d="M1.76559,3.025a.01845.01845,0,0,0-.03505.00463,3.75406,3.75406,0,0,1,.02685.56935c-.00366.01726.02234.02308.029.00776A.814.814,0,0,0,1.76559,3.025Z"/><path d="M1.72382,2.38481c-.0058-.05743-.009-.1153-.01006-.173a1.45393,1.45393,0,0,1,.01551-.351c.00417-.01806-.02489-.02553-.03119-.00834a1.005,1.005,0,0,0-.0569.34081c-.00077.08763-.00641.25315.06161.31913A.01724.01724,0,0,0,1.729,2.50519.31139.31139,0,0,0,1.72382,2.38481Z"/></g><text x="0" y="20" fill="#000000" font-size="5px" font-weight="bold" font-family="'Helvetica Neue', Helvetica, Arial-Unicode, Arial, Sans-serif">Created by Alice Noir</text><text x="0" y="25" fill="#000000" font-size="5px" font-weight="bold" font-family="'Helvetica Neue', Helvetica, Arial-Unicode, Arial, Sans-serif">from the Noun Project</text></svg>